# xmcd
#
# Track frame offsets: 
#        182
#        23580
#        61560
#        80497
#        110040
#        148387
#        179747
#        200757
#        217317
#
# Disc length: 3317 seconds
#
# Revision: 6
# Processed by: cddbd v1.5.2PL0 Copyright (c) Steve Scherf et al.
# Submitted via: ExactAudioCopyFreeDBPlugin 1.0
#
DISCID=8d0cf309
DTITLE=Dire Straits - Brothers in Arms
DYEAR=1985
DGENRE=Rock
TTITLE0=So far away
TTITLE1=Money for nothing
TTITLE2=Walk of life
TTITLE3=Your latest trick
TTITLE4=Why worry
TTITLE5=Ride across the river
TTITLE6=The man's too strong
TTITLE7=One world
TTITLE8=Brothers in arms
EXTD=Remastered in 1996
EXTT0=
EXTT1=
EXTT2=
EXTT3=
EXTT4=
EXTT5=
EXTT6=
EXTT7=
EXTT8=
PLAYORDER=
